<?xml version="1.0" encoding="utf-8"?>
<!-- Generator: Adobe Illustrator 27.9.0, SVG Export Plug-In . SVG Version: 6.00 Build 0)  -->
<svg version="1.1" id="Layer_1" xmlns="http://www.w3.org/2000/svg" xmlns:xlink="http://www.w3.org/1999/xlink" x="0px" y="0px"
	 viewBox="0 0 24 24" style="enable-background:new 0 0 24 24;" xml:space="preserve">
<style type="text/css">
	.st0{fill:#FFFFFF;}
</style>
<path class="st0" d="M12,4c-4.4,0-8,3.6-8,8s3.6,8,8,8s8-3.6,8-8S16.4,4,12,4z M2,12C2,6.5,6.5,2,12,2s10,4.5,10,10s-4.5,10-10,10
	S2,17.5,2,12z M7.8,7.8c0.4-0.4,1-0.4,1.4,0l2.8,2.8l2.8-2.8c0.4-0.4,1-0.4,1.4,0c0.4,0.4,0.4,1,0,1.4c0,0,0,0,0,0L13.4,12l2.8,2.8
	c0.4,0.4,0.4,1,0,1.4c-0.4,0.4-1,0.4-1.4,0L12,13.4l-2.8,2.8c-0.4,0.4-1,0.4-1.4,0c-0.4-0.4-0.4-1,0-1.4l2.8-2.8L7.8,9.2
	C7.4,8.8,7.4,8.2,7.8,7.8z"/>
</svg>
