<?xml version="1.0" encoding="UTF-8"?>
<svg id="Layer_1" data-name="Layer 1" xmlns="http://www.w3.org/2000/svg" viewBox="0 0 83.95 96.01">
  <path d="M82.45,22.9L43.47.4c-.93-.54-2.07-.54-3,0L1.5,22.9c-.93.54-1.5,1.53-1.5,2.6v45c0,1.07.57,2.06,1.5,2.6l38.97,22.5c.93.54,2.07.54,3,0l38.97-22.5c.93-.54,1.5-1.53,1.5-2.6V25.5c0-1.07-.57-2.06-1.5-2.6ZM41.97,6.47l13.48,7.79-32.97,19.04-13.49-7.79L41.97,6.47ZM38.97,87.8L6,68.77V30.7l32.97,19.03v38.07ZM41.97,44.53l-13.48-7.78,32.97-19.03,13.48,7.79-32.97,19.03ZM77.95,68.77l-32.97,19.03v-38.07l32.97-19.03v38.07Z"/>
</svg>